<?xml version="1.0" standalone="no"?>
<!DOCTYPE svg PUBLIC "-//W3C//DTD SVG 20010904//EN"
 "http://www.w3.org/TR/2001/REC-SVG-20010904/DTD/svg10.dtd">
<svg version="1.0" xmlns="http://www.w3.org/2000/svg"
 width="512.000000pt" height="512.000000pt" viewBox="0 0 512.000000 512.000000"
 preserveAspectRatio="xMidYMid meet">
<metadata>
Created by potrace 1.16, written by Peter Selinger 2001-2019
</metadata>
<g transform="translate(0.000000,512.000000) scale(0.100000,-0.100000)"
fill="#000000" stroke="none">
<path d="M1784 5085 c-180 -91 -257 -195 -257 -350 -1 -86 15 -123 110 -272
l85 -132 317 211 c174 116 318 212 320 214 9 8 -166 259 -203 290 -58 50 -132
74 -225 74 -70 0 -86 -4 -147 -35z"/>
<path d="M2492 4784 c-83 -22 -115 -42 -109 -67 3 -12 11 -42 17 -67 23 -89
-9 -210 -76 -289 -38 -45 -161 -125 -225 -146 -104 -35 -224 -10 -321 67 l-38
30 -27 -22 c-141 -109 -202 -351 -134 -530 12 -31 147 -244 309 -487 l288
-432 189 125 c104 69 191 127 193 129 2 2 -33 58 -78 125 -60 90 -79 125 -71
134 6 6 203 139 438 296 360 240 430 291 446 322 23 46 31 97 23 143 -9 47
-309 498 -371 558 -114 108 -297 153 -453 111z"/>
<path d="M4400 4401 c-52 -16 -106 -51 -146 -93 -43 -45 -188 -238 -182 -243
50 -40 609 -445 616 -445 11 0 159 199 184 248 53 105 44 240 -22 340 -45 67
-167 160 -243 186 -49 17 -163 20 -207 7z"/>
<path d="M1069 3526 c-141 -57 -281 -120 -312 -140 -155 -103 -236 -308 -196
-494 l10 -50 82 1 c70 1 92 -4 145 -28 87 -39 151 -110 194 -218 29 -72 33
-93 33 -172 -1 -75 -5 -98 -25 -139 -24 -50 -89 -124 -123 -143 -18 -10 -18
-12 3 -53 57 -111 203 -208 346 -230 123 -19 162 -7 683 202 262 105 477 191
478 192 4 3 -159 410 -168 420 -4 5 -66 -15 -139 -44 -112 -45 -134 -51 -145
-39 -7 8 -97 224 -200 480 -196 492 -208 514 -282 545 -69 29 -113 19 -384
-90z"/>
<path d="M4117 3568 c-49 -45 -247 -328 -247 -352 0 -33 27 -58 59 -54 20 2
51 38 153 176 71 96 128 182 128 193 0 22 -34 59 -54 59 -8 0 -26 -10 -39 -22z"/>
<path d="M407 2776 c-153 -64 -196 -91 -242 -154 -74 -99 -84 -231 -29 -369
74 -182 188 -262 358 -250 55 3 101 17 204 58 118 47 133 55 128 73 -13 48
-274 690 -282 692 -5 1 -66 -21 -137 -50z"/>
<path d="M2560 1941 c0 -127 -2 -150 -16 -155 -9 -3 -246 -6 -527 -6 -478 0
-515 -2 -553 -19 -49 -22 -88 -70 -103 -126 -17 -62 -14 -554 4 -638 20 -95
67 -177 140 -246 67 -62 124 -95 208 -117 85 -23 95 -20 108 29 6 23 18 55 26
71 25 48 95 117 148 144 45 23 64 27 175 30 148 4 208 -12 283 -79 49 -42 107
-145 107 -187 0 -24 2 -24 51 -18 165 22 316 142 381 303 l23 58 3 553 3 552
-231 0 -230 0 0 -149z"/>
<path d="M4555 1809 c-3 -4 -58 -153 -121 -331 -64 -178 -122 -337 -129 -354
l-12 -30 155 -53 c144 -50 160 -53 228 -49 144 9 246 90 305 241 72 186 40
343 -93 450 -40 32 -325 140 -333 126z"/>
<path d="M3674 1767 c-36 -19 -44 -50 -21 -80 12 -17 384 -157 417 -157 41 0
69 73 38 97 -10 7 -336 127 -404 148 -5 1 -19 -2 -30 -8z"/>
<path d="M1802 428 c6 -202 23 -255 104 -335 81 -79 136 -96 299 -91 117 3
135 6 180 30 69 36 137 111 164 181 18 50 21 79 21 217 l0 160 -386 0 -387 0
5 -162z"/>
</g>
</svg>
