<?xml version="1.0" standalone="no"?>
<!DOCTYPE svg PUBLIC "-//W3C//DTD SVG 20010904//EN"
 "http://www.w3.org/TR/2001/REC-SVG-20010904/DTD/svg10.dtd">
<svg version="1.0" xmlns="http://www.w3.org/2000/svg"
 width="512.000000pt" height="512.000000pt" viewBox="0 0 512.000000 512.000000"
 preserveAspectRatio="xMidYMid meet">
<metadata>
Created by potrace 1.16, written by Peter Selinger 2001-2019
</metadata>
<g transform="translate(0.000000,512.000000) scale(0.100000,-0.100000)"
fill="#000000" stroke="none">
<path d="M350 2770 l0 -2350 215 0 215 0 0 -211 c0 -182 2 -210 15 -205 8 3
55 32 104 66 50 33 93 60 96 60 3 0 46 -27 96 -60 49 -34 96 -63 104 -66 13
-5 15 23 15 205 l0 211 1780 0 1780 0 0 2350 0 2350 -2210 0 -2210 0 0 -2350z
m1298 765 c89 -37 151 -141 138 -228 -9 -60 -44 -116 -94 -152 -39 -27 -53
-30 -128 -34 l-84 -3 0 -99 0 -99 -85 0 -85 0 0 315 0 315 150 0 c113 0 160
-4 188 -15z m647 -13 c197 -94 246 -347 97 -500 -130 -133 -320 -136 -448 -8
-170 171 -97 456 136 527 14 4 54 8 90 8 52 1 77 -5 125 -27z m673 -5 c63 -41
95 -97 100 -172 5 -69 -10 -109 -59 -160 l-29 -30 65 -114 c36 -62 65 -115 65
-117 0 -2 -40 -4 -89 -4 l-89 0 -57 100 -56 100 -40 0 -39 0 0 -100 0 -100
-80 0 -80 0 0 316 0 315 173 -3 c170 -3 174 -4 215 -31z m702 -37 l0 -70 -90
0 -90 0 0 -245 0 -245 -80 0 -80 0 0 245 0 245 -95 0 -95 0 0 70 0 70 265 0
265 0 0 -70z m-1930 -785 l0 -75 -130 0 -130 0 0 -55 0 -55 105 0 105 0 0 -65
0 -65 -105 0 -105 0 0 -120 0 -120 -85 0 -85 0 0 315 0 315 215 0 215 0 0 -75z
m495 44 c199 -94 244 -369 83 -514 -22 -21 -65 -49 -95 -62 -48 -22 -65 -25
-138 -21 -73 4 -90 9 -140 39 -172 104 -208 331 -76 482 90 102 243 134 366
76z m445 -214 l0 -245 145 0 145 0 0 -70 0 -70 -225 0 -225 0 0 315 0 315 80
0 80 0 0 -245z m540 -70 l0 -315 -85 0 -85 0 0 315 0 315 85 0 85 0 0 -315z
m506 300 c166 -50 265 -247 205 -406 -47 -125 -165 -209 -292 -209 -88 0 -148
22 -209 77 -67 60 -102 129 -108 213 -5 80 8 134 51 196 81 119 218 170 353
129z"/>
<path d="M1480 3335 l0 -75 54 0 c68 0 86 16 86 74 0 58 -21 76 -88 76 l-52 0
0 -75z"/>
<path d="M2101 3392 c-68 -34 -99 -113 -79 -206 13 -61 51 -104 102 -116 75
-17 140 12 170 74 25 53 22 155 -7 197 -26 39 -79 69 -122 69 -16 0 -45 -8
-64 -18z"/>
<path d="M2740 3335 l0 -75 69 0 c75 0 87 7 97 57 6 30 -8 71 -30 85 -6 4 -39
8 -73 8 l-63 0 0 -75z"/>
<path d="M2005 2587 c-60 -60 -69 -176 -20 -250 37 -58 145 -73 203 -30 87 65
82 251 -8 298 -16 8 -54 15 -86 15 -50 0 -59 -3 -89 -33z"/>
<path d="M3546 2599 c-41 -32 -59 -77 -59 -144 0 -104 48 -166 135 -173 97 -7
158 59 158 171 0 113 -49 167 -151 167 -42 0 -63 -5 -83 -21z"/>
</g>
</svg>
