<?xml version="1.0" standalone="no"?>
<!DOCTYPE svg PUBLIC "-//W3C//DTD SVG 20010904//EN"
 "http://www.w3.org/TR/2001/REC-SVG-20010904/DTD/svg10.dtd">
<svg version="1.0" xmlns="http://www.w3.org/2000/svg"
 width="512.000000pt" height="512.000000pt" viewBox="0 0 512.000000 512.000000"
 preserveAspectRatio="xMidYMid meet">
<metadata>
Created by potrace 1.16, written by Peter Selinger 2001-2019
</metadata>
<g transform="translate(0.000000,512.000000) scale(0.100000,-0.100000)"
fill="#000000" stroke="none">
<path d="M1090 4417 c-448 -334 -768 -813 -910 -1362 -47 -184 -62 -303 -67
-540 -8 -342 24 -559 123 -854 48 -143 141 -351 156 -351 5 0 63 29 128 65
179 99 487 246 648 310 130 51 347 115 393 115 10 0 19 3 18 8 0 4 -43 39 -96
77 -239 175 -403 374 -538 650 -155 317 -212 649 -171 995 38 315 177 656 360
885 33 41 49 65 44 65 -2 0 -41 -29 -88 -63z"/>
<path d="M3975 4435 c227 -300 347 -612 376 -977 46 -560 -182 -1120 -604
-1489 -178 -155 -409 -288 -612 -351 -55 -17 -101 -32 -102 -33 -1 0 5 -24 13
-52 11 -38 12 -61 5 -94 -6 -24 -7 -47 -3 -51 4 -4 206 39 447 96 l440 104
153 95 c84 53 169 101 189 108 127 42 287 -89 233 -191 -5 -10 -41 -41 -80
-69 l-70 -52 25 -37 c29 -43 33 -97 7 -128 -17 -20 -333 -250 -403 -292 -36
-22 -794 -298 -959 -350 l-85 -26 -810 -6 c-740 -5 -814 -7 -855 -23 -65 -26
-121 -61 -158 -100 l-33 -34 33 -25 c222 -165 572 -327 853 -393 191 -45 290
-57 520 -62 181 -4 260 -2 365 11 448 56 872 234 1232 516 108 85 296 273 382
380 237 300 402 646 486 1021 65 291 67 711 5 1014 -78 378 -247 738 -492
1045 -126 158 -363 380 -498 466 l-30 19 30 -40z"/>
</g>
</svg>
